HIERARCHY
ROOT Hips
{
  OFFSET 177.329 104.345 67.7534
  CHANNELS 6 Xposition Yposition Zposition Zrotation Xrotation Yrotation
  JOINT RightUpLeg
  {
    OFFSET -8.9458 -8.66707 0.101652
    CHANNELS 3 Zrotation Xrotation Yrotation
    JOINT RightLeg
    {
      OFFSET 0 -44.4227 1.3727
      CHANNELS 3 Zrotation Xrotation Yrotation
      JOINT RightFoot
      {
        OFFSET 0.253549 -42.0924 -1.46059
        CHANNELS 3 Zrotation Xrotation Yrotation
        JOINT RightToes
        {
          OFFSET 0.04 -4.41509 8.4991
          CHANNELS 3 Zrotation Xrotation Yrotation
          End Site
          {
            OFFSET -0.08 -0.137448 9.77979
          }
        }
      }
    }
  }
  JOINT Spine
  {
    OFFSET 0 11.8905 0
    CHANNELS 3 Zrotation Xrotation Yrotation
    JOINT Spine1
    {
      OFFSET 0 25.6574 0.127663
      CHANNELS 3 Zrotation Xrotation Yrotation
      JOINT HEad
      {
        OFFSET 0 8.73416 0.011341
        CHANNELS 3 Zrotation Xrotation Yrotation
        End Site
        {
          OFFSET -0.29 12.7742 2.51395
        }
      }
      JOINT LeftShoulder1
      {
        OFFSET 8.99 -0.362252 -0.22
        CHANNELS 3 Zrotation Xrotation Yrotation
        JOINT LeftArm
        {
          OFFSET 10.2827 -0.00338 0.322123
          CHANNELS 3 Zrotation Xrotation Yrotation
          JOINT LeftForeArm
          {
            OFFSET 32.7669 0.099144 -1.42434
            CHANNELS 3 Zrotation Xrotation Yrotation
            JOINT LeftHand
            {
              OFFSET 27.5643 0.085362 1.02216
              CHANNELS 3 Zrotation Xrotation Yrotation
              End Site
              {
                OFFSET 16.7443 -0.6 1.50291
              }
            }
          }
        }
      }
      JOINT RightShoulder
      {
        OFFSET -8.99 -0.362252 -0.22
        CHANNELS 3 Zrotation Xrotation Yrotation
        JOINT RightArm
        {
          OFFSET -10.2827 -0.00338 0.322123
          CHANNELS 3 Zrotation Xrotation Yrotation
          JOINT RightForeArm
          {
            OFFSET -32.8971 0.099144 -1.42434
            CHANNELS 3 Zrotation Xrotation Yrotation
            JOINT RightHand
            {
              OFFSET -27.4921 0.085362 1.02216
              CHANNELS 3 Zrotation Xrotation Yrotation
              End Site
              {
                OFFSET -16.6312 -0.6 1.50291
              }
            }
          }
        }
      }
    }
  }
  JOINT LeftUpLeg
  {
    OFFSET 8.9458 -8.66707 0.101652
    CHANNELS 3 Zrotation Xrotation Yrotation
    JOINT LeftLeg
    {
      OFFSET 0 -44.4227 1.3727
      CHANNELS 3 Zrotation Xrotation Yrotation
      JOINT LeftFoot
      {
        OFFSET -0.253549 -42.0924 -1.46059
        CHANNELS 3 Zrotation Xrotation Yrotation
        JOINT LeftToes
        {
          OFFSET -0.04 -4.41509 8.4991
          CHANNELS 3 Zrotation Xrotation Yrotation
          End Site
          {
            OFFSET 0.08 -0.047448 9.77979
          }
        }
      }
    }
  }
}
MOTION
Frames:	7
Frame Time:	0.0166667
161.9892	99.1751	-159.421	4.78436	6.51619	178.716	-12.0924	-40.4098	-1.52963	68.2513	73.1342	-67.3932	17.593	1.07239	-25.5536	0.0462048	0.000533964	0.662642	-1.32491	-2.97009	1.22167	-2.59134	-5.96425	2.37883	-3.01776	10.3123	19.2068	-3.48E-16	3.18E-15	-1.39E-15	-56.2577	2.51186	28.8056	-3.55091	5.78953	-5.08772	7.62792	7.66126	5.1832	-3.48E-16	3.18E-15	-1.39E-15	56.1246	13.1801	27.5911	0.577908	0.994917	53.8893	-5.53345	3.68262	7.47159	0.523726	-17.4783	14.0579	2.60884	33.6558	-5.59546	-8.90473	-11.5276	-27.3361	1.73E-14	3.38E-14	9.54E-15
161.9732	99.4745	-160.504	5.50606	7.55698	179.039	-13.0524	-44.7351	-1.55767	68.9862	72.6185	-69.5547	16.1087	2.36648	-26.4213	0.0462048	0.000533964	0.662642	-1.08557	-2.74112	1.27344	-2.11351	-5.50247	2.49875	-3.04127	10.9454	19.1897	-2.39E-15	-6.36E-15	1.59E-15	-56.6885	6.17344	30.2033	-3.68993	3.98788	-5.53408	7.35477	7.51989	5.16021	-2.39E-15	-6.36E-15	1.59E-15	52.8104	13.2416	30.9858	1.27951	-2.95842	56.4458	-5.50438	3.60927	7.70804	1.46526	-15.3081	14.0172	2.04991	33.2225	-4.10983	-9.04351	-11.7579	-28.9049	1.59E-14	3.30E-14	6.36E-15
161.9622	99.7999	-161.519	5.6452	9.06344	-179.949	-15.4222	-48.3348	-2.61536	68.2716	71.8068	-70.7117	14.3171	3.15624	-27.2045	0.0462048	0.000533964	0.662642	-0.987829	-2.44918	1.22369	-1.92574	-4.9158	2.40804	-3.08913	12.0301	18.9352	1.99E-15	-3.18E-15	7.95E-16	-57.2916	9.42961	31.5757	-3.80634	2.93746	-5.8428	7.36455	7.83869	5.91871	1.99E-15	-3.18E-15	7.95E-16	48.2715	13.8438	34.1711	2.41739	-7.86415	58.845	-5.60599	3.33715	7.87164	1.45014	-12.6643	13.5486	1.97192	32.4488	-3.85557	-8.94781	-11.8273	-29.5248	1.57E-14	3.42E-14	6.36E-15
162.0332	100.12	-162.605	5.52687	10.3715	-178.671	-18.4748	-51.7734	-4.12214	65.8126	70.7232	-70.3005	12.5615	3.50793	-28.0262	0.0462048	0.000533964	0.662642	-0.983345	-2.18024	1.11748	-1.92607	-4.37616	2.19956	-2.94365	13.0826	18.5794	-9.94E-16	6.36E-15	0.00E+00	-57.5569	11.5581	32.6997	-3.74009	3.0948	-6.09147	7.33326	8.30815	6.70194	-9.94E-16	6.36E-15	0.00E+00	43.3226	14.2138	37.2633	3.7035	-12.8899	61.179	-5.66824	3.08373	8.04859	1.20256	-10.1957	13.1498	2.19983	31.5664	-4.74728	-8.79241	-11.9179	-29.5879	1.72E-14	3.26E-14	3.18E-15
162.1602	100.386	-163.721	5.31365	11.7262	-176.946	-22.206	-54.6741	-6.72791	62.117	69.6598	-68.3904	10.4852	3.46564	-29.2138	0.0462048	0.000533964	0.662642	-1.02493	-1.85527	0.891323	-2.02249	-3.7232	1.7505	-2.57623	14.0622	18.0928	0.00E+00	3.18E-15	0.00E+00	-57.2716	12.754	33.4507	-3.6541	4.12353	-6.28841	7.21022	8.82673	7.2523	0.00E+00	3.18E-15	0.00E+00	38.6396	13.9579	39.8906	4.91675	-17.3788	63.527	-5.64779	2.88319	8.32119	1.10409	-7.64858	12.5682	2.32959	30.6612	-5.83428	-8.7894	-12.0986	-29.7204	1.31E-14	3.30E-14	6.36E-15
162.3282	100.619	-164.822	5.81088	12.7735	-175.774	-25.3772	-57.437	-9.74395	56.8918	68.4418	-64.3053	8.44542	3.27794	-28.6938	0.0462048	0.000533964	0.662642	-8.31E-01	-1.69043	0.815679	-1.63942	-3.38956	1.6076	-2.05457	15.1284	17.4759	1.19E-15	0.00E+00	1.59E-15	-56.4096	13.5732	33.8248	-3.81406	5.68853	-6.41277	6.91698	9.06376	7.64623	1.19E-15	0.00E+00	1.59E-15	34.9783	13.0899	41.7113	5.7391	-20.7912	65.8037	-5.56794	2.80104	8.64367	2.09215	-5.43233	12.5897	2.25825	29.7987	-6.4032	-9.15739	-12.5334	-30.4414	1.67E-14	2.94E-14	1.27E-14
162.4852	100.858	-165.943	6.14974	13.6418	-174.692	-29.318	-59.8837	-13.5334	51.1509	66.9805	-59.1979	6.63444	2.96678	-27.3109	0.0462048	0.000533964	0.662642	-0.675108	-1.63137	0.804395	-1.32808	-3.26917	1.59027	-1.4782	16.2859	16.7387	-7.95E-16	3.18E-15	3.18E-15	-55.1813	14.2212	33.8994	-4.17145	7.3541	-6.52517	6.37909	9.0625	7.96698	-7.95E-16	3.18E-15	3.18E-15	32.6124	11.6352	42.691	6.07877	-22.8532	67.9425	-5.47492	2.8728	8.95443	2.95991	-3.35305	12.663	2.02415	28.7214	-6.49127	-9.44402	-12.6767	-31.4608	1.39E-14	3.18E-14	3.18E-15
